<mxfile host="app.diagrams.net" modified="2021-10-11T12:30:03.200Z" agent="5.0 (Macintosh; Intel Mac OS X 10_15_7) AppleWebKit/537.36 (KHTML, like Gecko) Chrome/94.0.4606.71 Safari/537.36" etag="8mY1fzQPnNPhUfdrfNrG" version="15.3.8" type="github">
  <diagram id="YUXYIt5hd6Wf62Awitmf" name="第 1 页">
    <mxGraphModel dx="946" dy="614" grid="1" gridSize="10" guides="1" tooltips="1" connect="1" arrows="1" fold="1" page="1" pageScale="1" pageWidth="827" pageHeight="1169" math="0" shadow="0">
      <root>
        <mxCell id="0" />
        <mxCell id="1" parent="0" />
        <mxCell id="eZ1xiEpKEVgs0QNhuoxA-1" value="线程t1" style="rounded=0;whiteSpace=wrap;html=1;" vertex="1" parent="1">
          <mxGeometry x="70" y="120" width="120" height="60" as="geometry" />
        </mxCell>
        <mxCell id="eZ1xiEpKEVgs0QNhuoxA-2" value="main线程" style="rounded=0;whiteSpace=wrap;html=1;" vertex="1" parent="1">
          <mxGeometry x="294" y="120" width="120" height="60" as="geometry" />
        </mxCell>
        <mxCell id="eZ1xiEpKEVgs0QNhuoxA-3" value="本地内存A&lt;br&gt;共享变量stop的副本2" style="rounded=0;whiteSpace=wrap;html=1;" vertex="1" parent="1">
          <mxGeometry x="70" y="250" width="120" height="60" as="geometry" />
        </mxCell>
        <mxCell id="eZ1xiEpKEVgs0QNhuoxA-4" value="&lt;span&gt;本地内存B&lt;br&gt;&lt;/span&gt;&lt;span&gt;共享变量stop的副本2&lt;/span&gt;" style="rounded=0;whiteSpace=wrap;html=1;" vertex="1" parent="1">
          <mxGeometry x="294" y="250" width="120" height="60" as="geometry" />
        </mxCell>
        <mxCell id="eZ1xiEpKEVgs0QNhuoxA-5" value="主内存" style="rounded=0;whiteSpace=wrap;html=1;" vertex="1" parent="1">
          <mxGeometry x="70" y="380" width="360" height="70" as="geometry" />
        </mxCell>
        <mxCell id="eZ1xiEpKEVgs0QNhuoxA-6" value="" style="shape=flexArrow;endArrow=classic;startArrow=classic;html=1;exitX=0.203;exitY=-0.014;exitDx=0;exitDy=0;exitPerimeter=0;" edge="1" parent="1" source="eZ1xiEpKEVgs0QNhuoxA-5">
          <mxGeometry width="100" height="100" relative="1" as="geometry">
            <mxPoint x="40" y="410" as="sourcePoint" />
            <mxPoint x="140" y="310" as="targetPoint" />
          </mxGeometry>
        </mxCell>
        <mxCell id="eZ1xiEpKEVgs0QNhuoxA-7" value="" style="shape=flexArrow;endArrow=classic;startArrow=classic;html=1;exitX=0.203;exitY=-0.014;exitDx=0;exitDy=0;exitPerimeter=0;" edge="1" parent="1">
          <mxGeometry width="100" height="100" relative="1" as="geometry">
            <mxPoint x="355.53999999999996" y="380" as="sourcePoint" />
            <mxPoint x="352.46000000000004" y="310.98" as="targetPoint" />
          </mxGeometry>
        </mxCell>
        <mxCell id="eZ1xiEpKEVgs0QNhuoxA-8" value="" style="shape=flexArrow;endArrow=classic;startArrow=classic;html=1;exitX=0.203;exitY=-0.014;exitDx=0;exitDy=0;exitPerimeter=0;" edge="1" parent="1">
          <mxGeometry width="100" height="100" relative="1" as="geometry">
            <mxPoint x="355.53999999999996" y="250" as="sourcePoint" />
            <mxPoint x="352.46000000000004" y="180.98000000000002" as="targetPoint" />
          </mxGeometry>
        </mxCell>
        <mxCell id="eZ1xiEpKEVgs0QNhuoxA-9" value="" style="shape=flexArrow;endArrow=classic;startArrow=classic;html=1;exitX=0.203;exitY=-0.014;exitDx=0;exitDy=0;exitPerimeter=0;" edge="1" parent="1">
          <mxGeometry width="100" height="100" relative="1" as="geometry">
            <mxPoint x="131.53999999999996" y="249.02" as="sourcePoint" />
            <mxPoint x="128.46000000000004" y="180.00000000000003" as="targetPoint" />
          </mxGeometry>
        </mxCell>
        <mxCell id="eZ1xiEpKEVgs0QNhuoxA-10" value="JMM控制" style="text;html=1;align=center;verticalAlign=middle;resizable=0;points=[];autosize=1;strokeColor=none;fillColor=none;" vertex="1" parent="1">
          <mxGeometry x="185" y="330" width="70" height="20" as="geometry" />
        </mxCell>
      </root>
    </mxGraphModel>
  </diagram>
</mxfile>
